<svg width="96" height="96" xmlns="http://www.w3.org/2000/svg" xmlns:xlink="http://www.w3.org/1999/xlink" overflow="hidden"><defs><clipPath id="clip0"><rect x="459" y="630" width="96" height="96"/></clipPath></defs><g clip-path="url(#clip0)" transform="translate(-459 -630)"><path d="M550.5 672.1C549.4 671 547.5 670.9 546.3 672L537.4 680.9C536.5 660.9 520 645.1 500 645.1 484.6 645.1 470.7 654.5 465.1 668.9 459.5 683.2 463.2 699.6 474.4 710.1 475.6 711.2 477.5 711.2 478.6 709.9 479.7 708.7 479.7 706.8 478.5 705.7 468.1 696 465.5 680.5 472.1 668 478.7 655.4 493 648.8 506.8 651.9 520.7 655 530.8 667 531.4 681.2L522.3 672C521.1 670.8 519.2 670.8 518.1 672 517 673.2 516.9 675.1 518.1 676.2L532.2 690.3C532.7 690.8 533.4 691.1 534.1 691.2L534.3 691.2 534.6 691.2 534.9 691.2 535.1 691.1C535.2 691.1 535.3 691 535.4 691L535.4 691C535.8 690.9 536.1 690.6 536.4 690.3L550.5 676.2C551.7 675.1 551.7 673.2 550.5 672.1Z"/></g></svg>