<svg width="83" height="83" xmlns="http://www.w3.org/2000/svg" xmlns:xlink="http://www.w3.org/1999/xlink" overflow="hidden"><defs><clipPath id="clip0"><rect x="1113" y="634" width="83" height="83"/></clipPath></defs><g clip-path="url(#clip0)" transform="translate(-1113 -634)"><path d="M1186.92 699.362 1176.11 688.555C1174.64 687.085 1172.66 686.567 1170.75 686.912L1166.95 683.108C1170.32 678.785 1172.31 673.252 1172.31 667.373 1172.31 653.107 1160.64 641.435 1146.37 641.435 1132.11 641.435 1120.44 653.107 1120.44 667.373 1120.44 681.639 1132.11 693.31 1146.37 693.31 1152.25 693.31 1157.7 691.322 1162.11 687.95L1165.91 691.754C1165.57 693.656 1166.09 695.645 1167.56 697.115L1178.36 707.922C1179.57 709.132 1181.13 709.737 1182.69 709.737 1184.24 709.737 1185.8 709.132 1187.01 707.922 1189.26 705.501 1189.26 701.697 1186.92 699.362ZM1146.29 688.036C1134.87 688.036 1125.54 678.699 1125.54 667.286 1125.54 655.874 1134.87 646.536 1146.29 646.536 1157.7 646.536 1167.04 655.874 1167.04 667.286 1167.04 678.699 1157.7 688.036 1146.29 688.036Z"/></g></svg>